<?xml version="1.0" encoding="UTF-8"?>
<svg xmlns="http://www.w3.org/2000/svg" xmlns:xlink="http://www.w3.org/1999/xlink" version="1.1" viewBox="0 0 147.79 140.52">
  <defs>
    <style>
      .cls-1 {
        fill: none;
      }

      .cls-2 {
        fill: url(#Gradiente_sem_nome_5);
      }

      .cls-3 {
        fill: url(#Gradiente_sem_nome_5-4);
      }

      .cls-4 {
        fill: url(#Gradiente_sem_nome_5-2);
      }

      .cls-5 {
        fill: url(#Gradiente_sem_nome_5-3);
      }

      .cls-6 {
        clip-path: url(#clippath-1);
      }

      .cls-7 {
        clip-path: url(#clippath-3);
      }

      .cls-8 {
        clip-path: url(#clippath-4);
      }

      .cls-9 {
        clip-path: url(#clippath-2);
      }

      .cls-10 {
        clip-path: url(#clippath);
      }
    </style>
    <clipPath id="clippath">
      <path class="cls-1" d="M11.34,106.01V23.3s1.27-15.69,19.6-15.69h43.14c80.57,8.35,81.73,110.26,11.3,124.56-3.52.71-5.59.74-9.15.74H28.51c15.49-13.57,26.73-25.18,37.17-43.03,3.06,2.94,6.13,5.88,9.19,8.83,3.16,2.65,7.76,1.55,8.88-2.36,2.87-12.97,5.75-25.94,8.62-38.91.71-4.37-3.33-6.81-7.01-5.87-13.35,3.74-26.7,7.48-40.05,11.21-3.82,1.94-2.96,7.82.13,9.6,2.93,2.64,5.87,5.28,8.8,7.92,0,0-22.58,22.89-42.89,25.71h0Z"/>
    </clipPath>
    <clipPath id="clippath-1">
      <path class="cls-1" d="M6.87,112.82c.31-.83,38.1-17.65,38.1-17.65l17.23-19.52-21.59-19.52-30.73,18.79-3.01,37.89h0Z"/>
    </clipPath>
    <linearGradient id="Gradiente_sem_nome_5" data-name="Gradiente sem nome 5" x1="196.6" y1="401.6" x2="179.7" y2="430.63" gradientTransform="translate(448.92 273.62) rotate(-90) scale(1 -1)" gradientUnits="userSpaceOnUse">
      <stop offset="0" stop-color="#3760e9"/>
      <stop offset="1" stop-color="#7ad6fc"/>
    </linearGradient>
    <clipPath id="clippath-2">
      <path class="cls-1" d="M7.91,100.67s4.46-16.31,19.21-30.27c14.74-13.96,54.09-7.21,54.09-7.21l61.98-27.63-31.77-54.59L-4.35-2.42,7.92,100.67h-.01Z"/>
    </clipPath>
    <linearGradient id="Gradiente_sem_nome_5-2" data-name="Gradiente sem nome 5" x1="231.8" y1="363.69" x2="236.13" y2="432.24" xlink:href="#Gradiente_sem_nome_5"/>
    <clipPath id="clippath-3">
      <path class="cls-1" d="M53.28,5.57s26.26,3.32,35.3,22.63c9.03,19.31,2.18,32.91,2.18,32.91l-21.21,47.63,82.59,15.7,6.74-132.52L53.28,5.58h0Z"/>
    </clipPath>
    <linearGradient id="Gradiente_sem_nome_5-3" data-name="Gradiente sem nome 5" x1="175.1" y1="357.73" x2="249.74" y2="330.19" xlink:href="#Gradiente_sem_nome_5"/>
    <clipPath id="clippath-4">
      <path class="cls-1" d="M75.6,95.17s2.39,15.36,34.47,9.24c32.08-6.13,33.12-53.15,33.12-53.15l-4.46,86.38-122.29,8.1v-24.92l48.79-37.79,10.38,12.15h-.01Z"/>
    </clipPath>
    <linearGradient id="Gradiente_sem_nome_5-4" data-name="Gradiente sem nome 5" x1="156.34" y1="423.72" x2="189.15" y2="328.43" xlink:href="#Gradiente_sem_nome_5"/>
  </defs>
  <!-- Generator: Adobe Illustrator 28.7.1, SVG Export Plug-In . SVG Version: 1.2.0 Build 142)  -->
  <g>
    <g id="Camada_1">
      <g class="cls-10">
        <g>
          <g class="cls-6">
            <rect class="cls-2" x="6.87" y="56.13" width="55.33" height="56.68"/>
          </g>
          <g class="cls-9">
            <rect class="cls-4" x="-4.36" y="-19.03" width="147.54" height="119.7"/>
          </g>
          <g class="cls-7">
            <rect class="cls-5" x="53.28" y="-8.09" width="105.6" height="132.52"/>
          </g>
          <g class="cls-8">
            <rect class="cls-3" x="16.42" y="51.25" width="126.76" height="94.47"/>
          </g>
        </g>
      </g>
    </g>
  </g>
</svg>