<?xml version="1.0" encoding="UTF-8"?>
<svg xmlns="http://www.w3.org/2000/svg" xmlns:xlink="http://www.w3.org/1999/xlink" version="1.1" viewBox="0 0 1475.79 463.52">
  <defs>
    <style>
      .cls-1 {
        fill: none;
      }

      .cls-2 {
        fill: #b2bed5;
      }

      .cls-3 {
        fill: #bec8dc;
      }

      .cls-4 {
        fill: url(#Gradiente_sem_nome_5);
      }

      .cls-5 {
        fill: #506aa0;
      }

      .cls-6 {
        fill: url(#Gradiente_sem_nome_5-4);
      }

      .cls-7 {
        fill: url(#Gradiente_sem_nome_5-2);
      }

      .cls-8 {
        fill: url(#Gradiente_sem_nome_5-3);
      }

      .cls-9 {
        clip-path: url(#clippath-1);
      }

      .cls-10 {
        clip-path: url(#clippath-3);
      }

      .cls-11 {
        clip-path: url(#clippath-4);
      }

      .cls-12 {
        clip-path: url(#clippath-2);
      }

      .cls-13 {
        fill: #bef1fa;
      }

      .cls-14 {
        fill: #00c8ee;
      }

      .cls-15 {
        fill: #b1bcd4;
      }

      .cls-16 {
        fill: #13367f;
      }

      .cls-17 {
        fill: #d2f5fc;
      }

      .cls-18 {
        clip-path: url(#clippath);
      }

      .cls-19 {
        fill: #c0f1fa;
      }

      .cls-20 {
        fill: #667cac;
      }
    </style>
    <clipPath id="clippath">
      <path class="cls-1" d="M96.34,334.64V105.98s3.51-43.37,54.18-43.37h119.26c222.73,23.08,225.94,304.81,31.24,344.34-9.73,1.96-15.45,2.05-25.3,2.05h-131.92c42.82-37.51,73.89-69.61,102.76-118.96,8.46,8.13,16.95,16.26,25.41,24.41,8.74,7.33,21.45,4.28,24.55-6.52,7.93-35.86,15.9-71.71,23.83-107.57,1.96-12.08-9.21-18.83-19.38-16.23-36.91,10.34-73.81,20.68-110.72,30.99-10.56,5.36-8.18,21.62.36,26.54,8.1,7.3,16.23,14.6,24.33,21.89,0,0-62.42,63.28-118.57,71.07h-.03Z"/>
    </clipPath>
    <clipPath id="clippath-1">
      <path class="cls-1" d="M83.98,353.46c.86-2.29,105.33-48.79,105.33-48.79l47.63-53.96-59.69-53.96-84.95,51.94-8.32,104.75v.03Z"/>
    </clipPath>
    <linearGradient id="Gradiente_sem_nome_5" data-name="Gradiente sem nome 5" x1="814.12" y1="1048.1" x2="767.4" y2="1128.35" gradientTransform="translate(1243.92 1068.62) rotate(-90) scale(1 -1)" gradientUnits="userSpaceOnUse">
      <stop offset="0" stop-color="#3760e9"/>
      <stop offset="1" stop-color="#7ad6fc"/>
    </linearGradient>
    <clipPath id="clippath-2">
      <path class="cls-1" d="M86.86,319.87s12.33-45.09,53.11-83.68c40.75-38.59,149.53-19.93,149.53-19.93l171.34-76.38L373.01-11.04,52.96,34.88l33.92,284.99h-.03Z"/>
    </clipPath>
    <linearGradient id="Gradiente_sem_nome_5-2" data-name="Gradiente sem nome 5" x1="911.44" y1="943.31" x2="923.41" y2="1132.82" xlink:href="#Gradiente_sem_nome_5"/>
    <clipPath id="clippath-3">
      <path class="cls-1" d="M212.28,56.97s72.6,9.18,97.59,62.56c24.96,53.38,6.03,90.98,6.03,90.98l-58.63,131.67,228.32,43.4,18.63-366.35L212.28,57v-.03Z"/>
    </clipPath>
    <linearGradient id="Gradiente_sem_nome_5-3" data-name="Gradiente sem nome 5" x1="754.69" y1="926.83" x2="961.03" y2="850.7" xlink:href="#Gradiente_sem_nome_5"/>
    <clipPath id="clippath-4">
      <path class="cls-1" d="M273.98,304.67s6.61,42.46,95.29,25.54c88.68-16.95,91.56-146.93,91.56-146.93l-12.33,238.8-338.07,22.39v-68.89l134.88-104.47,28.7,33.59-.03-.03Z"/>
    </clipPath>
    <linearGradient id="Gradiente_sem_nome_5-4" data-name="Gradiente sem nome 5" x1="702.81" y1="1109.27" x2="793.52" y2="845.84" xlink:href="#Gradiente_sem_nome_5"/>
  </defs>
  <!-- Generator: Adobe Illustrator 28.7.1, SVG Export Plug-In . SVG Version: 1.2.0 Build 142)  -->
  <g>
    <g id="Camada_1">
      <g>
        <path class="cls-16" d="M734.54,25.43c14.7,2.29,24.88,11.92,27.55,26.42,1.59,8.64.7,17.09-3.85,24.78-6.72,11.34-17.03,16.54-30.01,16.3-14.26-.26-24.77-7-30.85-19.83-6.42-13.55-3.78-34.94,14.88-44.41,3.38-1.72,6.98-2.71,10.71-3.28.43-.26.91-.14,1.37-.17.67-.1,1.39.23,2.01-.25h4.32c.65.48,1.39.15,2.08.25.6.06,1.22-.14,1.78.18Z"/>
        <path class="cls-15" d="M1387.08,328.98c-.14.03-.28.04-.42.03-.95-.86-.83-2.02-.83-3.12-.03-12.33-.03-24.66,0-37,0-1.09-.12-2.26.85-3.1.14-.05.27-.04.39.04v43.15Z"/>
        <path class="cls-17" d="M1387.08,452.68c-3.26.01-6.53.03-9.79.03-.61,0-1.3.16-1.73-.5,1.89-1.28,4.04-.73,6.06-.67,2.32.07,4.24-.18,5.06-2.71.13,0,.27,0,.4.02v3.84Z"/>
        <path class="cls-13" d="M1175.97,454.15c-.01.15-.02.3-.01.45h-9.12c0-.15,0-.3-.01-.44,3.05-1.27,6.09-1.26,9.14,0Z"/>
        <path class="cls-19" d="M1247.47,454.17c0,.14-.01.29-.02.43h-7.68c0-.15,0-.3,0-.45,2.57-1.19,5.14-1.22,7.7.02Z"/>
        <path class="cls-20" d="M726.37,25c-.54.65-1.26.49-1.96.43-.13-.11-.17-.21-.11-.3.05-.09.1-.13.15-.13h1.92Z"/>
        <path class="cls-2" d="M734.54,25.43c-.62,0-1.24-.01-1.86-.02-.2-.06-.28-.13-.23-.24.05-.11.1-.17.16-.17h1.92c0,.14,0,.28.02.43Z"/>
        <path class="cls-5" d="M732.6,25c.02.14.04.27.08.41-.71.09-1.44.25-2-.41h1.92Z"/>
        <path class="cls-3" d="M724.45,25c.02.15,0,.29-.04.43-.48,0-.95-.01-1.43-.02.02-.14.02-.28.02-.41h1.44Z"/>
        <path class="cls-16" d="M672.6,49.17c-.32-3.3-2.11-5.26-5.38-5.8-.94-.16-1.91-.13-2.87-.13-15.19-.01-30.38-.01-45.57-.01-.88,0-1.77-.02-2.64.11-2.83.42-4.36,1.9-5.06,4.69-.32,1.27-.3,2.54-.3,3.81v71.12c-1.32,0-2.25-.52-3.23-.84-19.09-6.34-38.51-7.69-58.12-3.09-26.3,6.18-45.24,21.52-56.03,46.46-5.2,12.04-7.38,24.75-7.46,37.81-.08,14.78-.03,29.57-.02,44.35,0,7.53.77,15,2.49,22.33,6.4,27.26,22,47.1,47.75,58.6,16.33,7.29,33.59,9.33,51.28,8.8,13.28-.39,26.46-1.79,39.55-4.05,13.08-2.27,25.94-5.38,38.46-9.86,5.49-1.97,7.21-4.4,7.21-10.16V51.57c0-.8.01-1.61-.06-2.4ZM609.31,278.99c-4.03,1.3-8.14,2.33-12.33,2.9-6.82.92-13.66,1.43-20.55.62-3.59-.42-7.09-1.18-10.42-2.58-8.85-3.72-13.63-10.69-15.71-19.79-.93-4.06-1.34-8.19-1.36-12.35-.04-14.53-.05-29.06,0-43.6.02-5.2.65-10.36,2.38-15.31,3.42-9.74,10.35-15.59,20.35-17.59,13.03-2.61,25.56-.8,37.57,4.88,1.35.64,1.56,1.52,1.56,2.82-.03,16.29-.02,32.58-.02,48.87v47.67c0,.48-.06.96,0,1.43.17,1.18-.42,1.69-1.48,2.03Z"/>
        <path class="cls-16" d="M1090.84,202.94c-.03-8.89-.75-17.7-2.69-26.4-4.66-20.87-16.08-36.76-34.68-47.44-13.73-7.89-28.66-11.55-44.33-12.45-9.99-.58-19.97-.25-29.89,1.34-13.24,2.13-25.68,6.38-37.11,13.49-14.65,9.12-25.02,21.66-30.47,38.12-3.45,10.41-4.81,21.15-4.84,32.07-.04,17.49-.02,34.99,0,52.49,0,5.2.41,10.37,1.28,15.5,4.57,27.04,19.61,46.13,44.22,57.8,12.26,5.82,25.36,8.62,38.85,9.6,12.33.9,24.6.3,36.79-1.79,20.28-3.48,38.71-11.26,55.19-23.6.83-.62,1.67-1.24,2.35-2.04,1.63-1.92,2.06-4.06,1.33-6.49-.36-1.18-1.03-2.15-1.75-3.11-6.73-8.93-13.46-17.86-20.21-26.79-.53-.69-1.08-1.39-1.72-1.98-2.18-2.03-4.43-2.25-7.01-.74-.82.49-1.62,1.03-2.45,1.5-14.28,8.05-29.51,12.88-45.96,13.64-6.02.27-12-.04-17.8-1.79-10.84-3.26-17.93-10.11-20.15-21.47-.79-4.04-.67-8.11-.66-12.19,0-2.07.02-2.08,2.09-2.1.48-.01.96,0,1.44,0h54.93c18.07,0,36.14,0,54.21-.01,1.2,0,2.4,0,3.59-.14,3.02-.34,4.79-2.04,5.24-5.01.16-1.02.21-2.07.21-3.1,0-12.31.04-24.61,0-36.91ZM1031.42,206.92c0,.97-.44,1.23-1.31,1.22-3.04-.02-6.08-.01-9.11-.01h-49.16c-.56,0-1.12-.01-1.67,0-.68.02-1.04-.26-1.04-.97-.01-7.26-.39-14.55,2.04-21.58,2.85-8.23,8.58-13.54,16.79-16.09,7.57-2.35,15.3-2.51,22.93-.36,10.75,3.03,17.27,10.17,19.58,21.08,1.17,5.51.93,11.12.95,16.71Z"/>
        <path class="cls-16" d="M1163.92,226.87c0,7.83,0,15.66,0,23.49,0,3.86.49,7.66,1.61,11.35,3.05,10.11,10.03,16.26,19.92,19.31,5.95,1.83,12.08,2.16,18.27,1.72,12.05-.86,23.08-4.77,33.32-11.06,1.52-.93,3.12-1.6,4.93-1.69,2.34-.12,4.21.75,5.6,2.63.47.64.91,1.31,1.36,1.97,6.98,10.32,13.95,20.65,20.94,30.97.87,1.28,1.52,2.62,1.56,4.2.06,2.23-.71,4.02-2.59,5.34-12.42,8.72-25.92,15.07-40.69,18.69-14.98,3.67-30.15,4.43-45.48,3-11.61-1.08-22.92-3.43-33.58-8.23-24.67-11.11-39.85-29.96-45.62-56.37-1.58-7.21-2.26-14.52-2.28-21.88-.05-15.98-.1-31.96.01-47.95.09-12.81,2.06-25.31,7.27-37.12,9.01-20.39,24.39-34.03,45.07-41.88,9.47-3.6,19.33-5.5,29.41-6.36,9.27-.79,18.54-.87,27.78.17,14.34,1.6,27.98,5.67,40.93,12.03,3.59,1.76,7.1,3.66,10.51,5.74,4.08,2.47,5.08,5.95,2.94,10.21-.36.71-.83,1.36-1.27,2.03-6.44,9.72-12.88,19.45-19.32,29.17-3.82,5.77-6.25,6.41-12.35,3.27-6.93-3.56-14.15-6.3-21.84-7.64-8.69-1.51-17.39-1.66-25.83,1.26-11.52,3.99-18.32,12.05-20.17,24.19-.35,2.31-.43,4.61-.43,6.93,0,7.51,0,15.02,0,22.53h.01Z"/>
        <path class="cls-16" d="M1386.69,285.79c-.03,2.94-.08,5.89-.08,8.83-.01,11.15-.01,22.29-.02,33.44,0,.32.05.63.08.95-.51,3.63-2.28,5.55-5.98,6.11-3.79.58-7.6,1.12-11.41,1.42-10.47.81-20.93.82-31.34-.83-14.43-2.29-27.53-7.53-38.55-17.37-10.13-9.04-16.12-20.47-19.29-33.52-1.97-8.12-2.73-16.38-2.74-24.71-.03-60.17-.02-120.35-.01-180.52,0-6.03,2.03-8.07,8.06-8.07,13.51-.01,27.03,0,40.54,0,.8,0,1.61-.02,2.39.1,3.32.48,5.15,2.29,5.52,5.64.81,7.46,1.56,14.93,2.31,22.4.84,8.42,1.66,16.85,2.49,25.27.15,1.56.18,1.58,2.24,1.58,10.88,0,21.75,0,32.63,0,1.2,0,2.41-.01,3.59.13,3.09.37,4.87,2.2,5.23,5.3.11.95.13,1.91.13,2.87,0,11.99,0,23.97,0,35.96,0,.96-.03,1.92-.14,2.87-.36,2.98-2.1,4.78-5.08,5.2-1.18.17-2.39.14-3.59.14-10.56,0-21.11,0-31.67,0-.64,0-1.28,0-1.92.02-.58.01-.87.34-.88.9-.01.56-.02,1.12-.02,1.68,0,23.17,0,46.35,0,69.52,0,4.81.36,9.57,1.77,14.21,2.85,9.36,9.21,14.65,18.8,16.22,4.46.73,8.92.52,13.4.2,2.23-.16,4.46-.36,6.7-.5.79-.05,1.6,0,2.39.1,2.84.35,3.96,1.49,4.42,4.43Z"/>
        <path class="cls-16" d="M784.01,233.21c0-30.12,0-60.23,0-90.35,0-.96-.02-1.93.12-2.87.51-3.57,2.67-5.85,5.82-7.36,7.28-3.5,14.77-6.46,22.49-8.82,12.04-3.67,24.33-5.91,36.89-6.87,13.21-1.01,26.35-.48,39.45,1.41,4.58.66,9.17,1.31,13.74,2.04,4.77.76,6.8,3.1,6.82,7.97.04,12.22.02,24.44,0,36.67,0,.56-.04,1.12-.1,1.67-.35,3.1-2.23,4.87-5.36,5.06-2.9.17-5.72-.56-8.58-.79-12.29-.97-24.57-1.5-36.8.74-3.78.69-7.45,1.75-11.07,3.04-1.15.41-1.73,1-1.56,2.26.07.55.01,1.12.01,1.68,0,48.09,0,96.18,0,144.27,0,1.12.03,2.24-.07,3.35-.29,3.38-2.02,5.24-5.34,5.77-.86.14-1.75.15-2.63.15-15.11,0-30.22,0-45.33,0-.88,0-1.76,0-2.63-.13-3.69-.53-5.48-2.42-5.84-6.15-.08-.87-.05-1.76-.05-2.63,0-30.04,0-60.07,0-90.11Z"/>
        <path class="cls-16" d="M759.49,227.09c0,32.12,0,64.23,0,96.35,0,1.59.07,3.19-.46,4.74-.68,1.98-1.99,3.22-4.02,3.71-1.1.27-2.2.34-3.33.34-15.27,0-30.54,0-45.81,0-6.1,0-8.25-2.15-8.25-8.22,0-64.71,0-129.42,0-194.14,0-5.71,2.06-7.84,7.79-7.85,15.59-.04,31.18-.02,46.77,0,.72,0,1.44.08,2.14.19,3.12.5,4.79,2.26,5.1,5.42.1,1.03.07,2.08.07,3.11,0,32.12,0,64.23,0,96.35Z"/>
        <path class="cls-14" d="M1386.68,448.83c-.17,3.49-.17,3.5-3.79,3.48-2.44-.01-4.89-.07-7.33-.1-.84-23.46-2.63-56.99-3.66-63.02-.93.56-1.18,1.5-1.6,2.28-3.65,6.74-6.79,13.74-10.07,20.66-4.2,8.88-8.17,17.85-12.04,26.88-.59,1.37-1.3,1.99-2.83,1.88-1.75-.13-3.52-.14-5.27,0-1.61.13-2.38-.43-3.03-1.94-3.25-7.55-6.57-15.07-10.02-22.54-3.85-8.33-7.64-16.7-11.97-24.8-.44-.82-.89-1.62-1.74-2.34-.18,1.62-.41,3.23-.53,4.85-.87,11.79-1.67,23.58-2.1,35.39-.26,7.02-.59,14.04-.9,21.06-.08,1.74-.09,1.78-1.74,1.8-2.64.03-5.28.03-7.91,0-1.8-.02-1.86-.05-1.78-1.92.33-7.1.66-14.2,1.07-21.29.36-6.22.8-12.43,1.24-18.64.64-9.16,1.35-18.31,2.29-27.44.37-3.65.76-7.3,1.11-10.96.27-2.88.25-2.88,3.03-2.89,1.68,0,3.37.12,5.03-.03,1.82-.16,2.87.44,3.8,2.08,3.45,6.12,6.69,12.36,9.81,18.65,5.42,10.95,10.33,22.13,15.29,33.29.45,1.01.74,2.1,1.56,3.05.77-.58.91-1.47,1.24-2.21,6.15-13.86,12.27-27.74,19.22-41.23,2.12-4.12,4.33-8.18,6.67-12.19.59-1.01,1.24-1.49,2.44-1.45,2.32.09,4.64.1,6.95,0,1.36-.06,1.75.48,1.86,1.76.36,4.37.88,8.73,1.26,13.11.78,8.99,1.54,17.97,2.24,26.97.42,5.41.78,10.83,1.09,16.25.41,7.17.95,14.34,1.09,21.53Z"/>
        <path class="cls-14" d="M1278.04,387.32c-4.84-9.26-12.3-15.41-22.32-18.34-5.82-1.71-11.77-2.1-17.8-1.26-14.81,2.07-25.32,9.86-30.73,23.83-4.79,12.37-4.72,25.04-.39,37.53,3.24,9.35,9.31,16.48,18.27,20.97,4.63,2.32,9.59,3.47,14.7,4.1,2.56,0,5.13.01,7.7.02,1.02-.16,2.05-.31,3.08-.47,12.24-1.97,21.49-8.25,27.35-19.23,7.28-13.64,7.3-33.48.14-47.15ZM1270.69,415.65c-.44,4.65-1.49,9.12-3.44,13.38-5.16,11.23-15.84,16.31-27.72,14.71-9.96-1.35-16.58-6.97-20.4-16.07-2.3-5.47-3.12-11.21-3.01-16.96-.07-6.28.94-12.21,3.45-17.86,4.96-11.16,15.45-16.38,27.06-15.13,10.63,1.14,17.56,7.03,21.43,16.74,2.71,6.8,3.3,13.92,2.63,21.19Z"/>
        <path class="cls-14" d="M938.93,410.77c0-12.86,0-25.73,0-38.59,0-.56.03-1.12,0-1.68-.05-.92.37-1.31,1.28-1.26.48.03.96,0,1.44,0,15.11,0,30.22,0,45.34,0,.32,0,.64,0,.96,0,1.79.05,1.8.05,1.82,1.9.02,2.24-.03,4.47.02,6.71.02,1.02-.35,1.46-1.4,1.4-1.04-.05-2.08-.01-3.12-.01-10.63,0-21.27,0-31.9,0-.56,0-1.12.02-1.68,0-.8-.02-1.17.35-1.14,1.16.02.4,0,.8,0,1.2,0,6.63,0,13.26,0,19.89,0,2.36.01,2.37,2.33,2.38,8.48,0,16.95,0,25.43,0,1.6,0,3.2,0,4.8,0q2.34.01,2.35,2.35c0,1.84.02,3.68,0,5.51-.02,1.92-.03,1.95-2.02,1.96-6.88.01-13.75,0-20.63,0-3.36,0-6.72-.01-10.07,0-2.14,0-2.17.02-2.17,2.05-.01,8.23-.01,16.46,0,24.69,0,2.02.03,2.05,2.2,2.05,11.51,0,23.03,0,34.54,0,1.28,0,2.56.07,3.84-.02,1.28-.09,1.65.45,1.62,1.66-.07,2.31-.04,4.63-.02,6.95.01.91-.34,1.33-1.26,1.29-.48-.02-.96,0-1.44,0-16.15,0-32.3,0-48.45,0-2.89,0-2.64.08-2.64-2.56,0-13.02,0-26.05,0-39.07Z"/>
        <path class="cls-14" d="M1069.88,410.66c0-12.62,0-25.25,0-37.87v-1.2c0-2.51-.12-2.35,2.34-2.35,15.43,0,30.86,0,46.3,0,2.18,0,2.18.02,2.19,2.26,0,2.16-.02,4.31,0,6.47.01.91-.34,1.33-1.27,1.28-.56-.03-1.12,0-1.68,0-11.03,0-22.07,0-33.1,0-.56,0-1.12.04-1.68,0-1.14-.1-1.54.37-1.52,1.52.05,3.91.02,7.83.02,11.75,0,3.04,0,6.07,0,9.11,0,2.24.02,2.26,2.19,2.26,5.44.01,10.87,0,16.31,0,4.88,0,9.76-.01,14.63,0,1.71,0,1.74.05,1.76,1.73.03,2.16-.05,4.32.03,6.47.05,1.29-.51,1.66-1.7,1.63-2.24-.05-4.48-.01-6.72-.01-7.84,0-15.67,0-23.51,0-.56,0-1.12.02-1.68,0-.86-.03-1.39.26-1.32,1.23.02.32,0,.64,0,.96,0,8.15,0,16.3,0,24.45,0,2.14.02,2.16,2.3,2.16,12.31,0,24.63,0,36.94,0,.56,0,1.12.03,1.68,0,.91-.05,1.28.35,1.27,1.27-.03,2.48-.02,4.95,0,7.43,0,.79-.31,1.19-1.12,1.18-.56,0-1.12.01-1.68.01-16.07,0-32.14,0-48.22,0-3.15,0-2.76.21-2.77-2.9-.01-11.99,0-23.97,0-35.96,0-.96,0-1.92,0-2.88Z"/>
        <path class="cls-14" d="M1175.97,454.15c-3.05,0-6.09,0-9.14,0-3.49-.45-6.96-1-10.29-2.18-9.2-3.25-16.11-9.2-20.07-18.1-6.15-13.83-6.65-28.07-1.26-42.19,4.95-12.98,14.57-20.99,28.29-23.59,9.98-1.89,19.72-.59,29.09,3.38.73.31,1.42.72,2.14,1.08.55.28.87.61.62,1.32-1.02,2.84-2,5.69-3.04,8.69-4.3-2.03-8.54-3.57-13.02-4.42-5.6-1.05-11.15-.91-16.56.94-8.52,2.91-13.83,9.04-16.47,17.43-3.16,10.04-3.03,20.18.39,30.13,3.73,10.88,12.44,17.03,23.93,17.37,7.05.21,13.85-.88,20.34-3.68.66-.28,1.33-.53,2.2-.88.92,2.05,1.43,4.21,2.09,6.31,1.09,3.49,1.09,3.52-2.41,4.86-5.42,2.08-11.11,2.89-16.83,3.51Z"/>
        <path class="cls-14" d="M888.9,415.75c0-11.1,0-22.2,0-33.3,0-.56-.03-1.12,0-1.68.06-.98-.27-1.53-1.35-1.45-.56.04-1.12,0-1.68,0-7.03,0-14.07,0-21.1,0-2.09,0-2.1-.02-2.12-2.09-.01-2.24.02-4.47,0-6.71-.01-.9.32-1.34,1.25-1.29.48.03.96,0,1.44,0,19.5,0,39,0,58.5,0,.32,0,.64,0,.96,0,1.8.05,1.83.05,1.85,1.9.03,2.16.03,4.31,0,6.47-.03,1.66-.06,1.7-1.79,1.71-7.03.02-14.07,0-21.1,0-.56,0-1.12.04-1.68,0-1.09-.09-1.68.26-1.56,1.46.06.63,0,1.28,0,1.92,0,22.28,0,44.56,0,66.84,0,2.99.36,2.85-2.82,2.85-2.4,0-4.8-.05-7.19.02-1.28.04-1.65-.48-1.62-1.69.06-2.71.02-5.43.02-8.14,0-8.94,0-17.89,0-26.83Z"/>
        <path class="cls-14" d="M1019.13,405.8c0,11.18,0,22.36,0,33.54,0,.56.03,1.12,0,1.68-.05.93.38,1.31,1.28,1.28.56-.02,1.12,0,1.68,0,10.95,0,21.9,0,32.84,0q2.63,0,2.64,2.56c0,2-.04,3.99.01,5.99.03,1.09-.32,1.67-1.49,1.56-.48-.04-.96,0-1.44,0-14.78,0-29.57,0-44.35,0-.4,0-.8-.04-1.2,0-1.29.13-1.71-.51-1.59-1.7.04-.39,0-.8,0-1.2,0-25.79,0-51.58,0-77.37,0-3.27-.34-2.86,2.99-2.89,2.32-.02,4.64.05,6.95-.02,1.2-.04,1.73.31,1.68,1.6-.08,2.23-.02,4.47-.02,6.71,0,9.42,0,18.84,0,28.27Z"/>
        <g class="cls-18">
          <g>
            <g class="cls-9">
              <rect class="cls-4" x="83.98" y="196.74" width="152.96" height="156.69"/>
            </g>
            <g class="cls-12">
              <rect class="cls-7" x="52.94" y="-11.04" width="407.87" height="330.91"/>
            </g>
            <g class="cls-10">
              <rect class="cls-8" x="212.28" y="19.21" width="291.93" height="366.35"/>
            </g>
            <g class="cls-11">
              <rect class="cls-6" x="110.38" y="183.25" width="350.43" height="261.16"/>
            </g>
          </g>
        </g>
      </g>
    </g>
  </g>
</svg>